<svg width="24" height="24" viewBox="0 0 24 24" fill="none" xmlns="http://www.w3.org/2000/svg">
<path d="M21.0086 16.7576C21.1738 16.7291 21.3256 16.7994 21.4029 16.891C21.4382 16.9328 21.4434 16.9617 21.444 16.9686C21.4441 16.97 21.4442 16.9714 21.4441 16.973C21.444 16.9753 21.4435 16.978 21.4426 16.9814C21.441 16.9873 21.4358 17.003 21.4185 17.0278C19.5655 19.6894 16.4858 21.4287 13 21.4287C7.33908 21.4287 2.75 16.8396 2.75 11.1787C2.75 7.69289 4.48938 4.61318 7.15095 2.76024C7.17575 2.74297 7.19139 2.73775 7.19731 2.73613C7.20317 2.73453 7.20674 2.73446 7.21012 2.73475C7.21706 2.73536 7.24589 2.74057 7.28772 2.77585C7.37937 2.85315 7.4496 3.00495 7.42113 3.17012C7.30857 3.82331 7.25 4.49448 7.25 5.17873C7.25 11.6681 12.5107 16.9287 19 16.9287C19.6843 16.9287 20.3554 16.8702 21.0086 16.7576Z" stroke="#1F1F1F" stroke-width="1.5"/>
</svg>
