<svg width="29" height="28" viewBox="0 0 29 28" fill="none" xmlns="http://www.w3.org/2000/svg">
<path d="M14.5 5.5C10 5.5 6.375 9.125 6.375 13.625C6.375 18.125 10 21.75 14.5 21.75C19 21.75 22.625 18.125 22.625 13.625C22.625 9.125 19 5.5 14.5 5.5ZM14.5 19.125C11.375 19.125 8.875 16.625 8.875 13.5C8.875 10.375 11.375 7.875 14.5 7.875C17.625 7.875 20.125 10.375 20.125 13.5C20.125 16.625 17.625 19.125 14.5 19.125Z" fill="#EDE9DD"/>
<path d="M14.5 4.75C15.25 4.75 15.75 4.25 15.75 3.5V1.5C15.75 0.75 15.25 0.25 14.5 0.25C13.75 0.25 13.25 0.75 13.25 1.5V3.5C13.25 4.125 13.75 4.75 14.5 4.75Z" fill="#EDE9DD"/>
<path d="M6.125 7.375C6.375 7.625 6.75 7.75 7 7.75C7.25 7.75 7.625 7.625 7.875 7.375C8.375 6.875 8.375 6.125 7.875 5.625L6.5 4.25C6 3.75 5.25 3.75 4.75 4.25C4.25 4.75 4.25 5.5 4.75 6L6.125 7.375Z" fill="#EDE9DD"/>
<path d="M5.25 14C5.25 13.25 4.75 12.75 4 12.75H2C1.25 12.75 0.75 13.25 0.75 14C0.75 14.75 1.25 15.25 2 15.25H4C4.625 15.25 5.25 14.75 5.25 14Z" fill="#EDE9DD"/>
<path d="M6.125 20.625L4.75 22C4.25 22.5 4.25 23.25 4.75 23.75C5 24 5.375 24.125 5.625 24.125C5.875 24.125 6.25 24 6.5 23.75L7.875 22.375C8.375 21.875 8.375 21.125 7.875 20.625C7.375 20.125 6.625 20.125 6.125 20.625Z" fill="#EDE9DD"/>
<path d="M14.5 23.25C13.75 23.25 13.25 23.75 13.25 24.5V26.5C13.25 27.25 13.75 27.75 14.5 27.75C15.25 27.75 15.75 27.25 15.75 26.5V24.5C15.75 23.875 15.25 23.25 14.5 23.25Z" fill="#EDE9DD"/>
<path d="M22.875 20.625C22.375 20.125 21.625 20.125 21.125 20.625C20.625 21.125 20.625 21.875 21.125 22.375L22.5 23.75C22.75 24 23.125 24.125 23.375 24.125C23.625 24.125 24 24 24.25 23.75C24.75 23.25 24.75 22.5 24.25 22L22.875 20.625Z" fill="#EDE9DD"/>
<path d="M27 12.75H25C24.25 12.75 23.75 13.25 23.75 14C23.75 14.75 24.25 15.25 25 15.25H27C27.75 15.25 28.25 14.75 28.25 14C28.25 13.25 27.75 12.75 27 12.75Z" fill="#EDE9DD"/>
<path d="M22 7.75C22.375 7.75 22.625 7.625 22.875 7.375L24.25 6C24.75 5.5 24.75 4.75 24.25 4.25C23.75 3.75 23 3.75 22.5 4.25L21.125 5.625C20.625 6.125 20.625 6.875 21.125 7.375C21.375 7.625 21.625 7.75 22 7.75Z" fill="#EDE9DD"/>
</svg>
